<svg width="63" height="61" viewBox="0 0 63 61" fill="none" xmlns="http://www.w3.org/2000/svg">
<path d="M57.8519 15.8893C57.7831 16.8105 57.6812 18.0379 57.5997 19.2678C57.485 20.9686 58.0404 22.4585 59.0647 23.7785C59.8775 24.8232 60.7132 25.8473 61.5566 26.8662C63.4854 29.1975 63.4752 31.7912 61.5617 34.0864C60.7158 35.1028 59.9106 36.1552 59.0571 37.1639C57.4926 39.0088 57.5105 41.1805 57.6379 43.4269C57.7271 45.0171 57.7678 46.6458 57.5207 48.2052C57.3143 49.4994 56.211 50.2945 54.9957 50.7011C53.4924 51.2028 51.956 51.612 50.4221 52.0185C48.5698 52.5074 47.1302 53.5315 46.111 55.1757C45.3696 56.3722 44.6358 57.579 43.8153 58.7215C42.2917 60.8443 40.7018 61.3718 38.2277 60.5947C37.2187 60.2782 36.2276 59.8871 35.2619 59.4548C32.6579 58.2918 30.0998 58.4205 27.5315 59.5835C26.6091 60.0004 25.646 60.322 24.6957 60.6771C22.5707 61.4722 20.889 60.7517 19.5743 59.0354C18.8507 58.0911 18.1806 57.0901 17.6098 56.0429C16.318 53.6653 14.3816 52.2681 11.7547 51.7535C10.6489 51.5373 9.56603 51.19 8.48315 50.8606C5.30333 49.8931 4.81668 46.7025 5.20142 44.0856C5.60654 41.3143 5.57851 38.6614 3.51214 36.4228C2.61782 35.4553 1.80503 34.3978 1.04065 33.3222C-0.276636 31.467 -0.40913 29.5552 1.02281 27.6768C1.90184 26.524 2.75285 25.3404 3.72616 24.2725C5.67024 22.1368 5.47915 19.6023 5.25747 17.0163C5.1683 15.9768 5.15556 14.9089 5.27786 13.872C5.56832 11.4326 7.27289 10.3597 9.40806 9.79614C15.5409 8.17764 15.3371 8.58933 18.8227 2.96706C20.7438 -0.133557 22.4254 -0.601856 25.832 0.676986C27.1289 1.16331 28.464 1.56728 29.7074 2.16682C31.2515 2.91302 32.6579 2.40869 34.0848 1.92237C35.6849 1.37687 37.2519 0.718159 38.8622 0.213827C40.6839 -0.357406 42.2152 0.239554 43.3796 1.72167C44.0345 2.55794 44.7122 3.41222 45.1734 4.3617C46.641 7.38769 49.1354 8.88524 52.277 9.51308C52.8478 9.6263 53.4236 9.71637 53.9841 9.86562C56.8276 10.617 57.8544 12.1428 57.8493 15.8893H57.8519Z" fill="#FECB00"/>
<path d="M23.38 32.912C22.036 32.912 20.872 32.6 19.888 31.976C18.904 31.328 18.148 30.476 17.62 29.42C17.116 28.34 16.864 27.164 16.864 25.892C16.864 24.524 17.14 23.312 17.692 22.256C18.268 21.176 19.06 20.348 20.068 19.772C21.076 19.172 22.216 18.872 23.488 18.872C24.856 18.872 26.02 19.208 26.98 19.88C27.964 20.552 28.708 21.428 29.212 22.508C29.716 23.588 29.968 24.716 29.968 25.892C29.968 27.26 29.692 28.484 29.14 29.564C28.588 30.62 27.808 31.448 26.8 32.048C25.792 32.624 24.652 32.912 23.38 32.912ZM38.212 19.232H43.252L25.612 44H20.572L38.212 19.232ZM23.38 29.384C24.1 29.384 24.628 29.036 24.964 28.34C25.324 27.62 25.504 26.804 25.504 25.892C25.504 24.956 25.312 24.152 24.928 23.48C24.544 22.808 24.028 22.472 23.38 22.472C22.684 22.472 22.168 22.808 21.832 23.48C21.496 24.152 21.328 24.956 21.328 25.892C21.328 26.852 21.508 27.68 21.868 28.376C22.252 29.048 22.756 29.384 23.38 29.384ZM40.444 44.36C39.1 44.36 37.936 44.06 36.952 43.46C35.968 42.836 35.212 41.996 34.684 40.94C34.156 39.86 33.892 38.648 33.892 37.304C33.892 35.96 34.168 34.76 34.72 33.704C35.296 32.624 36.076 31.784 37.06 31.184C38.068 30.56 39.196 30.248 40.444 30.248C41.74 30.248 42.88 30.596 43.864 31.292C44.872 31.964 45.64 32.864 46.168 33.992C46.696 35.096 46.96 36.272 46.96 37.52C46.96 38.864 46.684 40.064 46.132 41.12C45.58 42.152 44.812 42.956 43.828 43.532C42.844 44.084 41.716 44.36 40.444 44.36ZM40.444 40.76C41.116 40.76 41.62 40.412 41.956 39.716C42.316 38.996 42.496 38.192 42.496 37.304C42.496 36.368 42.304 35.576 41.92 34.928C41.56 34.256 41.068 33.92 40.444 33.92C39.772 33.92 39.256 34.256 38.896 34.928C38.536 35.576 38.356 36.368 38.356 37.304C38.356 38.264 38.536 39.08 38.896 39.752C39.28 40.424 39.796 40.76 40.444 40.76Z" fill="#192D1E"/>
</svg>
